<svg width="21" height="22" viewBox="0 0 21 22" fill="none" xmlns="http://www.w3.org/2000/svg">
<path d="M7.72537 17.7154C8.12045 17.5909 8.33984 17.1698 8.2154 16.7747C8.09096 16.3796 7.66981 16.1602 7.27473 16.2846L7.72537 17.7154ZM2.6155 13.4746L1.89009 13.2841L1.50918 14.735L2.2346 14.9254L2.6155 13.4746ZM12.75 20.5V21.25H14.25V20.5H12.75ZM13 13.5L12.9199 12.7543C12.6323 12.7852 12.3881 12.9787 12.2923 13.2517C12.1966 13.5246 12.2663 13.8283 12.4715 14.0321L13 13.5ZM17.5 8.2775H18.25L18.25 8.27508L17.5 8.2775ZM16.3337 5.46875L15.6345 5.19723C15.5271 5.47398 15.5929 5.78809 15.8026 5.99832L16.3337 5.46875ZM16.2637 2.64512L16.9485 2.33929C16.8581 2.13691 16.6828 1.98487 16.4697 1.92398L16.2637 2.64512ZM13.2222 3.75375L13.033 4.4795C13.2363 4.5325 13.4526 4.49777 13.6291 4.38375L13.2222 3.75375ZM7.77791 3.75375L7.3711 4.38383C7.54759 4.49778 7.76379 4.53249 7.96708 4.4795L7.77791 3.75375ZM4.73641 2.64512L4.53019 1.92403C4.31715 1.98496 4.14195 2.13697 4.0516 2.33929L4.73641 2.64512ZM4.66641 5.46875L5.19745 5.99837C5.40712 5.78813 5.47303 5.474 5.36554 5.19723L4.66641 5.46875ZM3.50004 8.30025H4.25004L4.25003 8.29833L3.50004 8.30025ZM8.00005 13.5L8.52948 14.0312C8.73304 13.8284 8.80277 13.527 8.70902 13.2553C8.61527 12.9837 8.37452 12.7895 8.08917 12.7553L8.00005 13.5ZM7.50005 15.6H8.25005C8.25005 15.5817 8.24938 15.5633 8.24803 15.5451L7.50005 15.6ZM6.75005 20.5V21.25H8.25005V20.5H6.75005ZM7.27473 16.2846C6.43719 16.5485 5.91292 16.5169 5.57089 16.404C5.23109 16.2919 4.96821 16.0659 4.71369 15.7341C4.58464 15.5659 4.46534 15.3806 4.33912 15.1763C4.21956 14.9827 4.08253 14.753 3.94409 14.5488C3.67595 14.1534 3.27299 13.6472 2.6155 13.4746L2.2346 14.9254C2.32698 14.9497 2.46455 15.0396 2.7026 15.3906C2.81726 15.5597 2.92473 15.7408 3.06297 15.9646C3.19454 16.1776 3.34633 16.4161 3.52354 16.6471C3.88151 17.1138 4.37179 17.5878 5.1008 17.8284C5.82759 18.0683 6.68778 18.0422 7.72537 17.7154L7.27473 16.2846ZM14.25 15.5125C14.25 14.7293 14.316 13.7501 13.5286 12.9679L12.4715 14.0321C12.7323 14.2912 12.75 14.5457 12.75 15.5125H14.25ZM13.0802 14.2457C14.3417 14.1101 15.6726 13.806 16.6763 12.8734C17.7033 11.9193 18.25 10.4425 18.25 8.2775H16.75C16.75 10.2022 16.2678 11.2055 15.6553 11.7745C15.0196 12.3651 14.1005 12.6274 12.9199 12.7543L13.0802 14.2457ZM18.25 8.27508C18.246 7.02399 17.7481 5.8251 16.8647 4.93918L15.8026 5.99832C16.4068 6.60425 16.7473 7.42423 16.75 8.27992L18.25 8.27508ZM17.0328 5.74027C17.2442 5.19594 17.3456 4.6151 17.3311 4.03134L15.8316 4.06852C15.8411 4.45408 15.7742 4.83771 15.6345 5.19723L17.0328 5.74027ZM17.3311 4.03134C17.3166 3.44758 17.1866 2.87248 16.9485 2.33929L15.5788 2.95095C15.7361 3.30311 15.822 3.68295 15.8316 4.06852L17.3311 4.03134ZM16.2637 2.64512C16.4697 1.92398 16.469 1.92378 16.4683 1.92358C16.468 1.92351 16.4673 1.92331 16.4669 1.92317C16.4659 1.9229 16.4649 1.92263 16.4639 1.92235C16.4619 1.9218 16.4599 1.92124 16.4578 1.92067C16.4536 1.91954 16.4491 1.91838 16.4444 1.91719C16.435 1.91482 16.4247 1.91237 16.4133 1.90989C16.3907 1.90493 16.3643 1.89989 16.334 1.89523C16.2734 1.88591 16.1978 1.87823 16.107 1.8758C15.9248 1.87094 15.6843 1.88728 15.3822 1.95182C14.7792 2.08066 13.9348 2.40059 12.8152 3.12374L13.6291 4.38375C14.6323 3.73578 15.3086 3.5014 15.6956 3.41871C15.8886 3.37749 16.0104 3.37376 16.0669 3.37526C16.0953 3.37602 16.1081 3.37813 16.1061 3.37781C16.1051 3.37766 16.1004 3.37692 16.0923 3.37513C16.0882 3.37424 16.0833 3.37309 16.0775 3.37163C16.0746 3.3709 16.0715 3.3701 16.0682 3.3692C16.0665 3.36876 16.0648 3.36829 16.0631 3.3678C16.0622 3.36756 16.0613 3.36731 16.0604 3.36705C16.0599 3.36692 16.0592 3.36673 16.059 3.36666C16.0583 3.36647 16.0576 3.36627 16.2637 2.64512ZM13.4113 3.028C11.5024 2.53041 9.49771 2.53041 7.58874 3.028L7.96708 4.4795C9.62797 4.04658 11.3721 4.04658 13.033 4.4795L13.4113 3.028ZM8.18473 3.12367C7.06479 2.40058 6.22044 2.08067 5.61754 1.95183C5.31552 1.88728 5.07506 1.87094 4.89298 1.8758C4.80212 1.87823 4.72656 1.88592 4.66595 1.89525C4.63567 1.8999 4.60924 1.90495 4.58659 1.90992C4.57528 1.9124 4.56492 1.91486 4.55552 1.91723C4.55082 1.91842 4.54635 1.91958 4.54213 1.92072C4.54002 1.92129 4.53797 1.92185 4.53598 1.9224C4.53499 1.92268 4.53401 1.92295 4.53304 1.92322C4.53256 1.92336 4.53184 1.92356 4.5316 1.92363C4.53089 1.92383 4.53019 1.92403 4.73641 2.64512C4.94263 3.36622 4.94194 3.36641 4.94124 3.36661C4.94101 3.36668 4.94032 3.36687 4.93987 3.367C4.93896 3.36726 4.93806 3.36751 4.93718 3.36775C4.93541 3.36824 4.9337 3.36871 4.93204 3.36916C4.92871 3.37005 4.9256 3.37086 4.9227 3.37159C4.9169 3.37306 4.91196 3.37421 4.90788 3.3751C4.89972 3.37689 4.89508 3.37764 4.89405 3.3778C4.89193 3.37813 4.90467 3.37602 4.93304 3.37526C4.98943 3.37376 5.11116 3.37748 5.30406 3.4187C5.691 3.50139 6.36741 3.7358 7.3711 4.38383L8.18473 3.12367ZM4.0516 2.33929C3.81348 2.87248 3.68343 3.44758 3.66896 4.03134L5.1685 4.06852C5.17806 3.68295 5.26395 3.30311 5.42122 2.95095L4.0516 2.33929ZM3.66896 4.03134C3.65449 4.6151 3.75588 5.19594 3.96729 5.74027L5.36554 5.19723C5.22591 4.83771 5.15894 4.45408 5.1685 4.06852L3.66896 4.03134ZM4.13537 4.93913C3.69464 5.38105 3.34541 5.90557 3.1077 6.48265L4.49463 7.05397C4.65721 6.65931 4.89604 6.30059 5.19745 5.99837L4.13537 4.93913ZM3.1077 6.48265C2.86998 7.05974 2.74844 7.67804 2.75004 8.30217L4.25003 8.29833C4.24894 7.87149 4.33206 7.44863 4.49463 7.05397L3.1077 6.48265ZM2.75004 8.30025C2.75004 10.4525 3.29793 11.9165 4.32582 12.8644C5.32754 13.7881 6.65566 14.0945 7.91093 14.2447L8.08917 12.7553C6.90232 12.6133 5.98042 12.3498 5.34267 11.7617C4.73108 11.1977 4.25004 10.208 4.25004 8.30025H2.75004ZM7.47062 12.9688C7.06592 13.3721 6.88126 13.8822 6.79834 14.3421C6.71532 14.8026 6.72381 15.2702 6.75206 15.6549L8.24803 15.5451C8.22379 15.215 8.22372 14.8902 8.27454 14.6082C8.32546 14.3258 8.41705 14.1433 8.52948 14.0312L7.47062 12.9688ZM6.75005 15.6V20.5H8.25005V15.6H6.75005ZM14.25 20.5V15.5125H12.75V20.5H14.25Z" fill="#40CBF5"/>
</svg>
