<svg width="21" height="21" viewBox="0 0 21 21" fill="none" xmlns="http://www.w3.org/2000/svg">
<path d="M2.52392 5.05646C3.91784 5.05646 5.04784 3.92453 5.04784 2.52823C5.04784 1.13193 3.91784 0 2.52392 0C1.13 0 0 1.13193 0 2.52823C0 3.92453 1.13 5.05646 2.52392 5.05646Z" fill="#40CBF5"/>
<path d="M7.43104 6.97226V20.9988H11.7787V14.0624C11.7787 12.2321 12.1224 10.4596 14.388 10.4596C16.6224 10.4596 16.65 12.5522 16.65 14.1779V21H21V13.3079C21 9.52938 20.1879 6.62561 15.7791 6.62561C13.6624 6.62561 12.2436 7.7892 11.6633 8.89039H11.6045V6.97226H7.43104V6.97226ZM0.346069 6.97226H4.70064V20.9988H0.346069V6.97226Z" fill="#40CBF5"/>
</svg>
