<svg width="23" height="21" viewBox="0 0 23 21" fill="none" xmlns="http://www.w3.org/2000/svg">
<path d="M3.20091 17.8402L3.05382 18.5756H3.05382L3.20091 17.8402ZM19.7991 17.8402L19.9462 18.5756L19.7991 17.8402ZM19.913 3.30278L20.0702 2.56943L19.913 3.30278ZM3.08696 3.30278L3.2441 4.03613L3.2441 4.03613L3.08696 3.30278ZM9.5 7.49999L9.88587 6.85687C9.65417 6.71785 9.36561 6.71421 9.13048 6.84734C8.89534 6.98046 8.75 7.22978 8.75 7.49999H9.5ZM9.5 13.5H8.75C8.75 13.7702 8.89534 14.0195 9.13048 14.1526C9.36561 14.2858 9.65417 14.2821 9.88587 14.1431L9.5 13.5ZM14.5 10.5L14.8859 11.1431C15.1118 11.0076 15.25 10.7634 15.25 10.5C15.25 10.2365 15.1118 9.99241 14.8859 9.85686L14.5 10.5ZM0.75 5.26582V15.7654H2.25V5.26582H0.75ZM22.25 15.7654V5.26582H20.75V15.7654H22.25ZM3.05382 18.5756C8.6294 19.6907 14.3706 19.6907 19.9462 18.5756L19.652 17.1047C14.2706 18.181 8.72938 18.181 3.34799 17.1047L3.05382 18.5756ZM20.0702 2.56943C14.4209 1.35886 8.57915 1.35886 2.92981 2.56943L3.2441 4.03613C8.68626 2.86995 14.3137 2.86995 19.7559 4.03613L20.0702 2.56943ZM22.25 5.26582C22.25 3.96551 21.3416 2.84188 20.0702 2.56943L19.7559 4.03613C20.3357 4.16039 20.75 4.67281 20.75 5.26582H22.25ZM20.75 15.7654C20.75 16.4165 20.2904 16.977 19.652 17.1047L19.9462 18.5756C21.2858 18.3077 22.25 17.1315 22.25 15.7654H20.75ZM0.75 15.7654C0.75 17.1315 1.71425 18.3077 3.05382 18.5756L3.34799 17.1047C2.70956 16.977 2.25 16.4165 2.25 15.7654H0.75ZM2.25 5.26582C2.25 4.67281 2.66426 4.16038 3.2441 4.03613L2.92981 2.56943C1.65836 2.84188 0.75 3.96551 0.75 5.26582H2.25ZM8.75 7.49999V13.5H10.25V7.49999H8.75ZM9.88587 14.1431L14.8859 11.1431L14.1141 9.85686L9.11413 12.8569L9.88587 14.1431ZM14.8859 9.85686L9.88587 6.85687L9.11413 8.14311L14.1141 11.1431L14.8859 9.85686Z" fill="#40CBF5"/>
</svg>
